<svg id="outline" height="512" viewBox="0 0 512 512" width="512" xmlns="http://www.w3.org/2000/svg"><path d="m232 192h16v16h-16z"/><path d="m264 192h16v16h-16z"/><path d="m296 192h16v16h-16z"/><path d="m232 224h16v16h-16z"/><path d="m264 224h16v16h-16z"/><path d="m296 224h16v16h-16z"/><path d="m232 256h16v16h-16z"/><path d="m200 192h16v16h-16z"/><path d="m200 224h16v16h-16z"/><path d="m248 88h16v16h-16z"/><path d="m280 88h16v16h-16z"/><path d="m216 88h16v16h-16z"/><path d="m248 120h16v16h-16z"/><path d="m280 120h16v16h-16z"/><path d="m216 120h16v16h-16z"/><path d="m200 256h16v16h-16z"/><path d="m200 288h16v16h-16z"/><path d="m264 256h16v16h-16z"/><path d="m296 256h16v16h-16z"/><path d="m296 288h16v16h-16z"/><path d="m232 360h16v16h-16z"/><path d="m264 360h16v16h-16z"/><path d="m56 304h16v24h-16z"/><path d="m88 304h16v24h-16z"/><path d="m120 304h16v24h-16z"/><path d="m56 352h16v24h-16z"/><path d="m88 352h16v24h-16z"/><path d="m120 352h16v24h-16z"/><path d="m56 400h16v24h-16z"/><path d="m88 400h16v24h-16z"/><path d="m120 400h16v24h-16z"/><path d="m376 400h16v24h-16z"/><path d="m408 400h16v24h-16z"/><path d="m440 400h16v24h-16z"/><path d="m482.38623 240.36426-122.38623-38.24573v-42.11853a7.99977 7.99977 0 0 0 -8-8h-16v-88a7.9998 7.9998 0 0 0 -4.11475-6.99316l-72-40a7.998 7.998 0 0 0 -7.7705 0l-72 40a7.9998 7.9998 0 0 0 -4.11475 6.99316v88h-16a7.99977 7.99977 0 0 0 -8 8v42.11853l-122.38623 38.24573a7.99964 7.99964 0 0 0 -5.61377 7.63574v240a7.99977 7.99977 0 0 0 8 8h448a7.99977 7.99977 0 0 0 8-8v-240a7.99964 7.99964 0 0 0 -5.61377-7.63574zm-10.38623 13.51709v10.11865h-112v-45.11865zm-216-220.72949 41.12708 22.84814h-82.25416zm-64 38.84814h128v80h-128zm-24 96h176v224h-16v-56h-.02124a7.983 7.983 0 0 0 -3.73853-6.78418l-64-40a8.00193 8.00193 0 0 0 -8.48046 0l-64 40a7.983 7.983 0 0 0 -3.73853 6.78418h-.02124v56h-16zm32 176h112v48h-112zm19.89453-16 36.10547-22.56592 36.10547 22.56592zm-179.89453-74.11865 112-35v45.11865h-112zm0 26.11865h112v200h-32v-32a7.99977 7.99977 0 0 0 -8-8h-32a7.99977 7.99977 0 0 0 -8 8v32h-32zm64 200h-16v-24h16zm64-72h176v72h-32v-48a7.99977 7.99977 0 0 0 -8-8h-32a7.99977 7.99977 0 0 0 -8 8v48h-16v-48a7.99977 7.99977 0 0 0 -8-8h-32a7.99977 7.99977 0 0 0 -8 8v48h-32zm48 72v-40h16v40zm64 0v-40h16v40zm144 0h-16v-24h16zm48 0h-32v-32a7.99977 7.99977 0 0 0 -8-8h-32a7.99977 7.99977 0 0 0 -8 8v32h-32v-200h112z"/><path d="m376 304h16v24h-16z"/><path d="m408 304h16v24h-16z"/><path d="m440 304h16v24h-16z"/><path d="m376 352h16v24h-16z"/><path d="m408 352h16v24h-16z"/><path d="m440 352h16v24h-16z"/></svg>