<?xml version="1.0"?>
<svg xmlns="http://www.w3.org/2000/svg" id="Layer_1" data-name="Layer 1" viewBox="0 0 512 512" width="512" height="512"><path d="M225.7,304.731a8.025,8.025,0,0,0,8,0l85.506-49.367a8,8,0,0,0,0-13.857h0L233.7,192.14a8,8,0,0,0-12,6.929V297.8A8.025,8.025,0,0,0,225.7,304.731Zm8-98.734,73.506,42.438L233.7,290.874Z"/><path d="M53.452,397.587H47.541a6,6,0,0,0,0,12h5.911a6,6,0,0,0,0-12Z"/><path d="M83.452,397.587H77.541a6,6,0,0,0,0,12h5.911a6,6,0,0,0,0-12Z"/><path d="M463.452,397.587H138.4V395.15a6,6,0,0,0-12,0v2.437h-8.855a6,6,0,1,0,0,12H126.4v2.372a6,6,0,0,0,12,0v-2.372H463.452a6,6,0,0,0,0-12Z"/><path d="M474.182,57.5H37.818A27.838,27.838,0,0,0,10,85.3V426.7a27.839,27.839,0,0,0,27.818,27.8H474.182A27.839,27.839,0,0,0,502,426.7V85.3A27.838,27.838,0,0,0,474.182,57.5ZM37.818,69.5H474.182A15.826,15.826,0,0,1,490,85.3v61.26H22V85.3A15.826,15.826,0,0,1,37.818,69.5ZM490,158.557V356.18H22V158.557ZM474.182,442.5H37.818A15.826,15.826,0,0,1,22,426.7V368.18H490V426.7A15.826,15.826,0,0,1,474.182,442.5Z"/><path d="M60.571,130.394a23.127,23.127,0,1,0-23.142-23.127A23.161,23.161,0,0,0,60.571,130.394Zm0-34.253a11.127,11.127,0,1,1-11.142,11.126A11.147,11.147,0,0,1,60.571,96.141Z"/><path d="M122.286,130.394a23.127,23.127,0,1,0-23.143-23.127A23.161,23.161,0,0,0,122.286,130.394Zm0-34.253a11.127,11.127,0,1,1-11.143,11.126A11.148,11.148,0,0,1,122.286,96.141Z"/><path d="M182.857,130.394a23.127,23.127,0,1,0-23.143-23.127A23.161,23.161,0,0,0,182.857,130.394Zm0-34.253a11.127,11.127,0,1,1-11.143,11.126A11.148,11.148,0,0,1,182.857,96.141Z"/><path d="M273.143,112.126H469.714a6,6,0,0,0,0-12H273.143a6,6,0,0,0,0,12Z"/></svg>
